<svg width="25" height="25" viewBox="0 0 25 25" fill="none" xmlns="http://www.w3.org/2000/svg">
<path d="M21.5 12.5C21.5 17.4706 17.4706 21.5 12.5 21.5M21.5 12.5C21.5 7.52944 17.4706 3.5 12.5 3.5M21.5 12.5H3.5M12.5 21.5C7.52944 21.5 3.5 17.4706 3.5 12.5M12.5 21.5C14.1569 21.5 15.5 17.4706 15.5 12.5C15.5 7.52944 14.1569 3.5 12.5 3.5M12.5 21.5C10.8431 21.5 9.5 17.4706 9.5 12.5C9.5 7.52944 10.8431 3.5 12.5 3.5M3.5 12.5C3.5 7.52944 7.52944 3.5 12.5 3.5" stroke="white" stroke-width="2" stroke-linecap="round" stroke-linejoin="round"/>
</svg>
