<svg width="25" height="25" viewBox="0 0 25 25" fill="none" xmlns="http://www.w3.org/2000/svg">
<path d="M3.5 5.5C3.5 4.39543 4.39543 3.5 5.5 3.5H8.77924C9.20967 3.5 9.59181 3.77543 9.72792 4.18377L11.2257 8.67721C11.3831 9.14932 11.1694 9.66531 10.7243 9.88787L8.46701 11.0165C9.56925 13.4612 11.5388 15.4308 13.9835 16.533L15.1121 14.2757C15.3347 13.8306 15.8507 13.6169 16.3228 13.7743L20.8162 15.2721C21.2246 15.4082 21.5 15.7903 21.5 16.2208V19.5C21.5 20.6046 20.6046 21.5 19.5 21.5H18.5C10.2157 21.5 3.5 14.7843 3.5 6.5V5.5Z" stroke="white" stroke-width="2" stroke-linecap="round" stroke-linejoin="round"/>
</svg>
